<svg xmlns="http://www.w3.org/2000/svg" viewBox="0 0 2215.55 1925.13"><defs><style>.cls-1{fill:#00bded;fill-rule:evenodd;opacity:0.15;}.cls-13,.cls-19,.cls-2{fill:#fff;}.cls-3{fill:#00beee;stroke:#09bfb1;}.cls-19,.cls-20,.cls-23,.cls-3{stroke-miterlimit:10;}.cls-4{fill:#2a3756;}.cls-5{fill:#d9e3e7;}.cls-6{fill:#1f293d;}.cls-7{fill:#09bfb1;}.cls-8{fill:#cc61ad;}.cls-9{fill:#059d96;}.cls-10{fill:#9a71c2;}.cls-11{fill:#f05b60;}.cls-12{fill:#fb9259;}.cls-13{opacity:0.4;}.cls-14{fill:#0080a3;}.cls-15{fill:#0e98be;}.cls-16{fill:#d27473;}.cls-17{fill:#e3847c;}.cls-18{fill:#e4837a;}.cls-19{stroke:#fff;stroke-width:3px;}.cls-20,.cls-23{fill:#283558;stroke:#0f3541;}.cls-21{fill:#d47973;}.cls-22{fill:#c2645f;}.cls-23{stroke-width:2px;}</style></defs><g id="Layer_2" data-name="Layer 2"><g id="Layer_1-2" data-name="Layer 1"><path class="cls-1" d="M1562.19,1906.67C1032.5,1958.55,738.25,1852.51,349,1517.09,8.4,1223.59-35.31,866.65,20.09,589.13c54-270.4,209.15-481.93,438.45-546.51,226.16-63.69,398-100.06,735.91,224.13s560.93,315,738.32,423.15c172.11,104.94,312.79,273.18,277.25,611.68s-313,511.57-647.83,613.09"/><g id="grid"><path class="cls-2" d="M1242.86,207.11H464.16v778.7h778.7ZM618.54,979H471V831.43H618.54Zm0-154.39H471V677H618.54Zm0-154.38H471V522.66H618.54Zm0-154.38H471V368.28H618.54Zm0-154.39H471V213.89H618.54ZM772.93,979H625.33V831.43h147.6Zm0-154.39H625.33V677h147.6Zm0-154.38H625.33V522.66h147.6Zm0-154.38H625.33V368.28h147.6Zm0-154.39H625.33V213.89h147.6ZM927.31,979H779.71V831.43h147.6Zm0-154.39H779.71V677h147.6Zm0-154.38H779.71V522.66h147.6Zm0-154.38H779.71V368.28h147.6Zm0-154.39H779.71V213.89h147.6ZM1081.69,979H934.1V831.43h147.59Zm0-154.39H934.1V677h147.59Zm0-154.38H934.1V522.66h147.59Zm0-154.38H934.1V368.28h147.59Zm0-154.39H934.1V213.89h147.59ZM1236.08,979h-147.6V831.43h147.6Zm0-154.39h-147.6V677h147.6Zm0-154.38h-147.6V522.66h147.6Zm0-154.38h-147.6V368.28h147.6Zm0-154.39h-147.6V213.89h147.6Z"/><rect class="cls-3" x="902.93" y="376.73" width="152.88" height="98.57"/><rect class="cls-2" x="622.93" y="526.73" width="152.88" height="98.57" transform="translate(-112.61 174.02) rotate(-13.14)"/><rect class="cls-4" x="959.62" y="307.2" width="20.22" height="96.94"/><rect class="cls-4" x="679.03" y="462.27" width="20.22" height="96.95"/><rect class="cls-4" x="1087.94" y="651.34" width="96.94" height="20.22" transform="translate(283.99 1662.61) rotate(-79.79)"/></g><polygon class="cls-5" points="369.47 1852.99 306.45 1852.99 366.45 1520.38 459.47 1520.38 369.47 1852.99"/><rect class="cls-5" x="166.84" y="1469.3" width="1740" height="81.08"/><rect class="cls-4" x="1041.99" y="985.09" width="216.82" height="484.07"/><rect class="cls-6" x="977.62" y="1446.8" width="345.57" height="22.35"/><rect class="cls-6" x="749.37" y="755.92" width="800.23" height="526.36"/><rect class="cls-4" x="770.97" y="777.2" width="757.41" height="482.32"/><rect class="cls-2" x="848.7" y="865.37" width="82.07" height="14.51"/><rect class="cls-7" x="882.22" y="889.64" width="82.07" height="14.51"/><rect class="cls-2" x="930.77" y="913.91" width="233.04" height="14.51"/><rect class="cls-3" x="930.77" y="938.19" width="343.5" height="14.51"/><polygon class="cls-8" points="1365.42 985.09 938.47 985.09 930.77 962.46 1357.73 962.46 1365.42 985.09"/><rect class="cls-7" x="882.22" y="986.73" width="150.8" height="14.51"/><rect class="cls-8" x="930.77" y="1011.01" width="80.84" height="14.51"/><rect class="cls-2" x="1016.98" y="1011.01" width="80.84" height="14.51"/><rect class="cls-3" x="930.77" y="1035.28" width="136.07" height="14.51"/><rect class="cls-2" x="930.77" y="1059.55" width="191.3" height="14.51"/><rect class="cls-2" x="930.77" y="1083.82" width="80.84" height="14.51"/><rect class="cls-7" x="930.77" y="1108.1" width="80.84" height="14.51"/><rect class="cls-2" x="1016.98" y="1108.1" width="267.4" height="14.51"/><rect class="cls-8" x="1290.03" y="1108.1" width="94.34" height="14.51"/><rect class="cls-2" x="882.22" y="1132.37" width="82.07" height="14.51"/><rect class="cls-3" x="930.77" y="1156.64" width="80.84" height="14.51"/><rect class="cls-8" x="930.77" y="1180.91" width="233.04" height="14.51"/><path class="cls-8" d="M800.49,794.85a8.82,8.82,0,1,1-8.81-8.82A8.82,8.82,0,0,1,800.49,794.85Z"/><path class="cls-7" d="M829,794.85a8.82,8.82,0,1,1-8.81-8.82A8.81,8.81,0,0,1,829,794.85Z"/><path class="cls-2" d="M857.52,794.85A8.82,8.82,0,1,1,848.7,786,8.82,8.82,0,0,1,857.52,794.85Z"/><path class="cls-9" d="M537.43,879.93c-18,168-42.79,231.92-82.35,227.68s-59.64-83.79-41.68-251.76,115-361.73,154.58-357.5S555.4,712,537.43,879.93Z"/><path class="cls-7" d="M451.85,1181.23c-8.62-86.4-10-171.36-4.05-252.51,4.74-64.94,14.14-127.61,27.92-186.26,18.81-80,42.49-136.4,52.38-155l6.7,3.55C525,609.4,501.65,665.2,483,744.54c-13.67,58.24-23,120.47-27.68,185-5.87,80.64-4.51,165.08,4,251Z"/><path class="cls-7" d="M471.51,889.74c-53.47,182.77-57.19,325.85-13.76,338.56S524.5,1103.65,578,920.88s142.6-326.25,99.16-339S525,707,471.51,889.74Z"/><path class="cls-9" d="M454,1228.09A1308.47,1308.47,0,0,1,488.9,988.94a1198.61,1198.61,0,0,1,58.3-178.22c32.19-76.93,65.82-131.74,79.1-150l6.14,4.46C619.3,683.26,586,737.57,554.08,813.92a1191.1,1191.1,0,0,0-57.85,177,1300,1300,0,0,0-34.7,237.57Z"/><path class="cls-7" d="M321.66,915.79c81.08,149,111.35,272.85,75.94,292.12S316,1112,234.87,963,49.11,706,84.52,686.68,240.59,766.79,321.66,915.79Z"/><path class="cls-9" d="M425.09,1285.09l-6.63,1.32c-14-70.39-37.26-142.7-69.1-214.9a1313,1313,0,0,0-92.18-172c-48.64-76.74-96.68-135.23-115.29-155.43l5-4.58c18.73,20.32,67.06,79.13,115.94,156.26a1317.89,1317.89,0,0,1,92.71,172.9C387.56,1141.37,411,1214.18,425.09,1285.09Z"/><path class="cls-10" d="M517.42,1397.93V1225.47H349.65v172.46a83.83,83.83,0,0,0,39.81,71.37h88.15A83.83,83.83,0,0,0,517.42,1397.93Z"/><path class="cls-11" d="M449.31,1391.67c0-12.07,4.42-20.46,13.11-24.93,7.35-3.79,16.74-4.11,25.72-4.11l5.22,0c3.62,0,7.46,0,11.08,0l5.26,0c13.76,0,39.37,0,39.37,29a49.88,49.88,0,0,1-99.76,0ZM504.58,1379c-3.72,0-7.64,0-11.35,0l-5.09,0c-19.85,0-22.49,2.56-22.49,12.71a33.55,33.55,0,1,0,67.09,0c0-9.42-1.88-12.71-23-12.71Z"/><path class="cls-12" d="M497.86,1442.27a27,27,0,0,0,27,27h73.88a27,27,0,0,0,27-27V1340.44H497.86Z"/><path class="cls-13" d="M565.93,1420.1a20.3,20.3,0,0,0,20.3,20.3h0a20.3,20.3,0,0,0,20.3-20.3v-77.73h-40.6Z"/><path class="cls-11" d="M490.81,1342.09a6.92,6.92,0,0,0,6.91,6.91H625.27a6.91,6.91,0,0,0,6.91-6.91h0a6.91,6.91,0,0,0-6.91-6.91H497.72a6.91,6.91,0,0,0-6.91,6.91Z"/><g id="_05" data-name="05"><path class="cls-14" d="M1409,1623.88s-272.37,27.95-372.15,90c-79.23,49.3-72.56,185.09-72.56,185.09s242.25,34.64,420.08,24.14c309.1-18.26,489.15-125.54,489.15-125.54,51.88-53.65,54.57-21.67,51.82-51.57C1904.86,1523.17,1409,1623.88,1409,1623.88Z"/><path class="cls-3" d="M1905.85,888.14c-16-15.91-94.88-64.24-151.23-69.76-1.6-.17-112.28,5-114.56,5.62-25.79,7.42-108.4,50.93-144.26,89.25h0s-72.51,63.75-89.45,185.08c0,0,52.14,198.31,43.51,254.46-16.44,107-53.73,193.57-40.86,271.09,69.38,169.66,429.14,179.63,523.32,144.56C2010.51,1654.08,1933.59,1079.24,1905.85,888.14Z"/><path class="cls-3" d="M1838.14,1653.74l66.16,29.75s162.79-174.38,180.24-271.49c23.84-132.61-9-369-178.69-523.86-54.65,15.06-64.87,94-61,201.71,4.08,113.21,116,283.19,116,283.19Z"/><path class="cls-15" d="M1959.33,1683.92l-6.71-.86c36.73-287.78-19.28-588.26-19.85-591.26l6.64-1.26C1940,1093.55,1996.19,1395.08,1959.33,1683.92Z"/><path class="cls-16" d="M1167.33,1462s-21.21,4.23-27.49,7.11l-124-.11c-6.9.26-55.68,1.29-56.58-15.39-.83-15.12,46.46-16.21,50.52-16.72s32.91-3.18,32.41-7.24,59.3-25.75,79.74-12.06S1167.33,1462,1167.33,1462Z"/><path class="cls-4" d="M1043.27,1463.16c0-26.15-26.33-47.34-58.8-47.34s-81.8,21.19-81.8,47.34a38.29,38.29,0,0,0,.82,7.82h139A39,39,0,0,0,1043.27,1463.16Z"/><path class="cls-17" d="M1055.86,1454.65c-10.73-2.86-32.72-16-40-19.32s-46.4-16.54-46.4-16.54-19.44,35.9-29,40.51-18.92,5.35-17.64,1c6.91-23.81,18.25-49.74,33.5-61.68,10.49-8.21,51.55-14.6,51.55-14.6s10.81-7.22,19.23-6.9,64.25,15.28,64.25,15.28l77.25,1.92-1.24,67.72S1082.86,1461.82,1055.86,1454.65Z"/><path class="cls-3" d="M1439.81,1000.73s-51.08,94.49-72.49,355c-14.53,14.2-235.48,23.88-235.48,23.88l-9.22,105.49s194.72,80.15,323.4,37.23c56-18.67,99.5-60.66,109-142.72C1565.61,1287.88,1439.81,1000.73,1439.81,1000.73Z"/><path class="cls-15" d="M1428.07,1526.31l-.14-7.89c37.06-.66,103.51-45.56,123.29-92.35,18.62-44-1.2-212.46-1.39-214.16l7.82-.93c.84,7,20.26,172.23.84,218.16C1537.1,1479.71,1467.74,1525.6,1428.07,1526.31Z"/><g id="_05-2" data-name="05"><g id="neck"><polygon class="cls-18" points="1754.13 818.38 1693.41 867.46 1641.79 818.38 1650.88 707.2 1745.02 689.89 1754.13 818.38"/></g><g id="_05-3" data-name="05"><g id="head"><g id="glasses"><path class="cls-19" d="M1555.88,681.77a29.08,29.08,0,0,1-4.18.64c-9.24.71-18.39-3.18-25.76-10.95s-12-18.33-13.18-29.9c-2.28-22,8.79-41.53,25.75-45.52a27.63,27.63,0,0,1,4.17-.65c9.25-.71,18.4,3.18,25.76,11s12,18.32,13.19,29.89C1583.91,658.21,1572.84,677.78,1555.88,681.77Zm-16.57-82.27c-15.39,3.62-25.42,21.59-23.32,41.81,1.11,10.73,5.43,20.55,12.16,27.66s14.9,10.55,23.19,9.91a26,26,0,0,0,3.73-.57c15.4-3.62,25.43-21.6,23.33-41.82-1.11-10.73-5.43-20.55-12.16-27.66s-14.9-10.55-23.19-9.91A24.86,24.86,0,0,0,1539.31,599.5Z"/></g><g id="face"><path class="cls-18" d="M1726.35,583.16c-12.37-57.06-63.66-83.8-116.37-80.42s-76.77,39.67-73.38,92.56c0,0,.28,4.1.71,10.35.55,7.87,4.75,18.9,5.5,29.57,1.06,15.16-1.49,25.22-1,33.59,1.76,33.91,41.31,109.06,79.38,106.63,43.95-2.81,115.13-66.1,112.7-104.17C1733.63,668,1731,604.76,1726.35,583.16Z"/><path id="hair" class="cls-20" d="M1798.18,563.07c2.89,44.85-15.57,115.73-52.72,151,0,0-51.42,25.3-122.86-74.84-8.7-12.18-43.71-46.15-69-110.53,18.62-38.26,62-68.17,114.34-71.55C1735.52,452.77,1793.86,496.1,1798.18,563.07Z"/><rect class="cls-19" x="1515.54" y="633.05" width="96.56" height="3.42" transform="translate(-71.78 218.52) rotate(-7.81)"/><path class="cls-21" d="M1610.82,617.44c2.19-6.54,10.91-14.07,27.21-4.63s28.82,63.77,1.31,74.38S1604.83,635.3,1610.82,617.44Z"/><path class="cls-22" d="M1648.45,746.75l-.37,21.43s-17.62,7.66-28.29,7.35Z"/></g><g id="eyebrows"><path class="cls-20" d="M1551.37,600.83a81.93,81.93,0,0,0-14.41-.41c-6.6.38-5.26,17.09,1.15,16.67,4.22-.27,7.43-.73,8.89-1.36C1554.38,612.51,1551.37,600.83,1551.37,600.83Z"/></g></g><g id="hair-2" data-name="hair"><g id="_05-4" data-name="05"><g id="head-2" data-name="head"><path class="cls-20" d="M1763.65,398c4.46,45.49-21.2,76.66-62.58,80.72s-63.15-23.81-67.6-69.29,14-81.76,55.39-85.82S1759.19,352.51,1763.65,398Z"/><path class="cls-23" d="M1709.1,474.42c-36.11,2.33-58.44-21.52-62.91-67.15-2.18-22.22,1.33-41.68,10.16-56.26,9.39-15.54,24.47-24.73,43.59-26.61.76-.07,1.54-.14,2.3-.19a58.79,58.79,0,0,1,48.12,19c12.11,12.92,19.91,31.73,22,52.94s-2.63,40-13.66,54c-10.87,13.79-27.09,22.11-46.9,24.05C1710.89,474.29,1710,474.36,1709.1,474.42Zm-6.69-147.51-2.21.18c-18.24,1.79-32.6,10.54-41.54,25.31-8.53,14.09-11.91,33-9.78,54.6,2.09,21.4,8.1,37.86,17.88,48.93,10.74,12.19,25.84,17.43,44.76,15.58s34.64-9.83,45-23c10.59-13.42,15.12-31.42,13.09-52s-9.57-38.87-21.27-51.36A56.2,56.2,0,0,0,1702.41,326.91Z"/></g></g></g></g><path id="hood" class="cls-3" d="M1621.9,989.67c52.85-.3,226.95-42.52,262.94-112.87S1872.61,754,1796.15,729.32s-226.91.24-258.39,70.36S1548.82,990.1,1621.9,989.67Z"/><path class="cls-15" d="M1744.57,961.15a161.5,161.5,0,0,0,25.55-1.93c91.83-14.66,110-67.78,110.77-70l-6.43-2.08c-.16.51-18,51.48-105.4,65.45-88.58,14.13-215.18-59.45-216.45-60.19l-3.42,5.83a597.3,597.3,0,0,0,75.76,36C1670.79,952.11,1710.88,961.15,1744.57,961.15Z"/></g></g></g></g></svg>